<mxfile host="Electron" modified="2024-02-16T07:43:00.078Z" agent="Mozilla/5.0 (Windows NT 10.0; Win64; x64) AppleWebKit/537.36 (KHTML, like Gecko) draw.io/21.2.8 Chrome/112.0.5615.165 Electron/24.2.0 Safari/537.36" etag="AtunQ_fAZn0FtG21OycN" version="21.2.8" type="device">
  <diagram name="Page-1" id="2XWkQP5S-hDbL94sL5Vg">
    <mxGraphModel dx="2058" dy="1180" grid="1" gridSize="10" guides="1" tooltips="1" connect="1" arrows="1" fold="1" page="1" pageScale="1" pageWidth="3300" pageHeight="4681" background="#999999" math="0" shadow="0">
      <root>
        <mxCell id="0" />
        <mxCell id="1" parent="0" />
        <mxCell id="APLwThIm-aDqV8bCMrbt-1" value="PathAnimation" style="rounded=0;whiteSpace=wrap;html=1;fontSize=25;fillColor=#dae8fc;strokeColor=#6c8ebf;" parent="1" vertex="1">
          <mxGeometry x="1298" y="140" width="650" height="60" as="geometry" />
        </mxCell>
        <mxCell id="bB5YiQVqKnfjXykwCb6W-1" value="" style="shape=image;verticalLabelPosition=bottom;labelBackgroundColor=default;verticalAlign=top;aspect=fixed;imageAspect=0;image=data:image/png,iVBORw0KGgoAAAANSUhEUgAAAo8AAAIMCAYAAACUtEYNAAAAAXNSR0IArs4c6QAAAARnQU1BAACxjwv8YQUAAAAJcEhZcwAADsMAAA7DAcdvqGQAACbrSURBVHhe7d0LkCT3XR/w/+7e+3Q6PU5Py9ZJd/ZJlpBl+QUxyDavik2MKUiV8+Bhx2BMpUh4FEVIOSAcF4S4wCRUCpeDwdgkxFVxygRiqBTYWNgQW7axxRkQliydkH2nx0m602nv9nbvNv3r7tmZ3dvb++88e3Y+n9uefkzPdP//3dPzve6Z+U/dcuvXLaaVFhfT8onF+Mq5zplnIxhBibpc5Mar+0k3RlvUzjc4U3WfAVC5TTOSLdL1QjfW/lOWZmp5marR9rTV5mlZHh5XCYSLK1PjukJjD+8yPTy0WyNY5AhMRsVOxrYEmmz1t90BG/pCR1LKsdJ1DfVUtXkPLufqIkS2w+OKULh2aKyHit6KucZcl6XpoRI2Vv0NwghqaEI2in2PUVn+NtRwI1nZsaqhoeupdrp+8MbZJmVJ2jelanR5GTtD5Mr7q/C4IhiemxtbE+p+0Vsxy3nkzbWqLh/awxJHZLgFHb/6mRRjtGXsRM2z/JjPqlTSWkZSO10vdLy2ZfOKWT1xedu+KU2tESBD6/6pF95ya8dbwYrguPJsY/VXWzneFD2sUZcPbV4drGX49dOL8arbUVBDTJLlb2ycq+saGv4Dx8qKTLVOzaujzlDYHuwcr4bDagGyIzwuD44rzza2RzsDZVg+tswad11IDw/tXmcFrMNI1nUkuizphFTQ5OwHQI722+0Qdb3Qkazt0I2merp78OAW2b6zHKqD4jkhsbw5z31VeOwIjsvCYXlXPb48XJ47vpoLznB+XT60hyX2YFLKOSnGqHbHbEew3w5G+5C+wY2koBNTu0PXdc32tEmGvz2bWM7y3joYhlY4rHutm2XzdQbIqZtfeEv7eL4iOHYGyk2bN6edO3ekLZu3pC1bt6SZmZmBvhN0rgmrGKvqGf7K2nuAUaveZodtNEvtyhit6ijUUW4wiqc+c+ZMmpubS6dPz6fZ2dm0MD9fTK+WuSwoljfVcCgvWy+FxzWC465du9LuS3ano089m07OzadTcwtpfuFMPQNMqo0QUaMM7YNCpUnlGua6DGNZ/VnGyi3WvSZta1bX1G3Uv72Q0di8aVPatnVz0W1Jey7bnZ5++lh65vjxpaC4ZoAsw+N5gmN87nHPnj3FlJl0+PHj6fT8QnUH0GGc34Bj3dsHhLYmlWlY6zKM5fRnGattse40aTtzrqZvn/7tiYzWls2b0tVXXJY2zUylxx57vJ7ayovVdq4Gq+Hp1YNj9BfTxbt2FUMz6dDXntwgwTEKXRUc+mcj7lNNeq14zTJp4o14HIL9OKwjOSLjPfy1x9LCmepqc/Wl6XYmXLqtJhThsaWY0Jop+nE6My5VxxnHjcebEf02rvvUhdbbawWGq3pzHh/jtr6s5cjjT6ZLdu8uM2BnJly5naer0eLOsl8M1QM7L9pZfsZxY12qjsK1uhBvjGu9OV7o/l4N+vlhPTpfGy0rxzeqSSknzTau+6HXz0YRme+Jp46lHTt3lOOtTLgUJOuR6sxja2LHXPGt6vhyzGRYGeLON945bTU586ym8/lX6xgPG2V7xXGg1U2CSSknzdbrfjjq44/X0UZxau50mQFbybF1Cbu1iaPX/sxjPbE1Hj/HE9+qHl+tF9J6Xkw5859vns5pOc+zHq3n6+dz0p3WC4XxF9vS9qQJet0PO98bRvk+4fU0tjoixqm5+bR169Zqa9YBMkY6x6cO3HRznHKsN3k5WPb3Xr83fen+w+XU87l41/a0edNMPZYvfubn+DMn67FBWPniqUq3XK8vsJXPudbz9XP5qz0XzTKu26jJ6z2IdRtFefuzzF6PXm3juq9uJP3YBqvtEaPctv3bQxmSzk1W7Dov3H99eujQQ8XI1NI3rjv7RXi8qeNqdTUQ/b17r09/ff+Rcvx83v2ud6Z9+/fVY6trNaL91SNPtAJrevb40fQTP/X2ND29/uCZp7MWwmovopXzdKP1vDnPtXId1rP81daf5hr37dXE9R/EOo2inP1ZZj+OXpVx31fHXT/rf7W9YpTbt397KUMSm6zeZW7e/7z00EOHOgJjtT1b49NL+1ZHcMx1ye5d6Zabnr9m98ID+8vu21719enbX111V+y5fF3L6V0TduJYh86uU9TFWt16rFzOymUxON1sryayz8Dg9ftYsdrzjfK13Mxj4Tt+7u3p0Je/lB75yt+u2sV9MU/TfOpjf5T+wSteXo+dK+775J/8YT3WpXM2WetqdDG0NFD1pg4cuKmaVNxGvzVDzpnHD7zv19J11+1LH/mzL6ep6cWqm4nubHrdi/anq6/anU6ceLacd+fOnenDn3qwHL5h12z63je9Lc3MbCrHVzr4ubvTpZdeUo+l9LPv+KX0vvf/t3rswn7rvf+57L/5rf+67LfVpS5eUL//4Q+Wy/jGb359PW2l1rxhKr3zrn+T3vz9/zQ958YX1dP6ob2MKPM9n/tCsc7/qp6yXhc6SHSWJ6ycf+X95NuIdde0Mg1ifUZRxv4ss3+RYCPuu+NgkPW+2t4xyu08ygB7rgiH3/a6N6Qjjz5WT1nusiIXfOKP/zBd//xb6inNEOHw1371XelHf+yn0p9/+jP11Mpa93Wl2GQ374szj63L1tU2LJslrAY6fuexC/E0U1Mz6cFjJ9JDzzyTDs0eT38/dyw9Mv90mp8/WwTRoqv/tcxsyWvW8Lvf+KYiqN1WBsd3/OxP11NX9867fqYIg79Tj621o8Z91f037H1e2X/Fy+4o+xfy9rv+Q1+DY4TXWO+WW19yZw/BMUdnvaxVRwAMzqCDXNP+Q9Cs9ZmZmSmD4/Hjx1ftHjr0cDlP00QojHAYIbHzDGTfg2PI2GQ9hcczZ8+W/Ssu35qmtiykYwvH0+OnjqZHT1ZN20ytWIFtl55KO/bM1mN54ozjgw89nN7ypn9eT1lLXih6y5v+WfmcX77/K+ltP/QD9dSVWkFz0EFrWEGuc2PE8MoOgMEa1rG2czlNOL57j+mHlQFyIMExU0/hsbU7/M2jj6QHnz6cnl54Kp1Mz6TTUyfK6Yt1LqpPdKadl5xIOy6q7luvg1/6m/Ls4le/cu9SF+LsXVxOvuPFtxXTvlgGw5aDn/tEOS36nb7r9a9NX/yrL6X3/NffTi97ye311ErMH5eoo98aDvG8n/zY7y8bjrOHMU8MxxnM1mN+673/qZwvtNahNV+Ix8X6xnrH9KihT37sD5YCcvVc7XK2LsOHuLwdZT73vpUvzhjv7CCX/QX6b9ivq6Yd+x1X+qEzQI4qOIYeL1tXThZhcfP2+bR523zatPV02lx0pWJfaQXHcNMVz037L7mxHssTQemS3RenT9/z+fT67/ne8lJ2dP/3j/+0DE5vv+sX02994HfT5//y3vKy8vve/9/Lx337t746veVtP15Oe/rY8aUQGCK4xWXoeM64rzNwhhd93S3l4+KSeQTN1cRl7wigMV+s3/ve8+5y+Lvf+OZy2S23vuRV5fToQizr9d/zfeX6xnq3prdNpf/1ofeXy26VNQJu5yXuV9/5ynJ6XNrvXFabF2nzxOug/VoAJsnGPCY/8pX7sro2700bxYrmCesNG1+aWcc2LkNj0W3eGl1HeCzeKzufZv+l+8ouRwSoOLMWZ+fi84Ch84xcOzSt/oYc4TLCYYjL08+59ppyOEJkBLeWP737U+cExAh3IYJo5xd3OsVl7wigreGP/H71LadY5lNPPb30WcrOs5itz1muJcJlPF8rBId47gi0rbL+5E//XNlfuSwAGJbrbjyQ1S23jnDBOTovVXdewu672EzlpipuWt+0LoarSa3mCXtUBccqNG6J/pYqPFbf3G4v9PT8fDp58lQ9vrbWF2aiCxGQIlBW015UhsNuxFm71iXu6FqXvAchgmN1lrA68xihcH3aZ6ueOPpk2W9r37d8OKwcZ7By6rvztQAwyRwLu7HyM44rPwM5TL2Fx+L9cm7uZHrFnn3ppZc+P91x8QvS7TtvTrdtv6WcXs1SvalGjjx79uzSl2wqOW+6bXGWrTV/52cVI5Sd7wxhpwigcfavFeY6Q13nZe1+qta5veyWCIOts6Gd4oxjzNd5KT3OjH7yzz9dj61Hq37z63ht/X6+jWaj1I3tC/3lNXWu0QTIM2fOlD/Hcz5XX31VOU/TnO/LMaMKkD2Fx8iBNx94bvrh13xr+uFXfXv6oW96bfrBb/rO9JZXviHddOC6tGPHznTllVekyy6/LG3esrkMj9PT3b2IWp9PbJ0x7DyL1wpcMX3l5xc7xTerOy9Zt8Sl6zhD2G9xWbt1ljM+E9m5zhEG49J73LdSfG4yfp6oVda4bN15Gbs7nfUewyu71aw1z2rTqGyEemltX9sYGJThB8jf/p3fLX/HcbUfCI/u03/2sXKeJonfV/yPv/Dz5wTHllaAfNcvvqOeMnhTLzhwU7H1FutL2nW/uNm7d2/66wfW/pHwH/vRt6YX337+S77T09NlFym+s0WZe794ML3r3f8lTS/9SHjODuRNbPBa22E9dZ2z7SbRRqqXJpRlEOswinL1Z5n9OxpupP206dT1+Xl/v5AIkMNsmW/pR8KLTVNeQY4fCC83U3U9uafwWP4I+Nn4IfD1iUVPFaGy9avla8uZh+Eb3k48vsatjlrru/I1N+pyDGr5oyhXf5bZv6PiqLftJFHXa/Ne3yQXCo+9/VTP1HR59jCaGVy727ysi8dcODjG/Reah8GKg935Oi5sXPfhpmzrUS8fGB6v9XHSl29br62bN0+hceMb12AFsBE08RjcpADpP69rGXB47GbHFCjGV+7BqHOeSdje9mmAPE0IbJ3rIECuZoDhsZs3TG+yzZK7PWK+znltx+XG5eCzcjuOmv2IjaRp+3Mcl5p6bGraegmQK/UYHltvNqt1a1ltQ1zoMYzG+bZna7rttrZxPOjYrjAYXlf5BMgmq8JjWSftb1q3q2itN5FuXgTlAqrBZbygmq+1L7S6ftqo23+1fZ312aj7BpOrqfv0II7tvWraMXSyjullaYubpVLXA9HLPPO4cqfq1w7WxJ2V/jjfdl3P9t5o+8dGKw/QHceBfEvRpSGatj6jsc7L1v168/MmOnm62ebxIh3nF+pq5XXgAULT3gObfLxt2no5jg/wCzOr6SZAML5a2/tC23wjvxA768ABB+h0oWMjbQJkk1QtzJSfc1z+mccb9u5Nv/d7v17OBADAZHjDG34kPfjQQ9V/b8rWZaqWZepmZoZ95hEAgHEmPAIAkE14BAAgm/AIAEA24REAgGzCIwAA2YRHAACyFeGx+l3H1k31s5flDz6WQwAATI4yDda/+13mwc7hgjOPAABkEx4BAMgmPAIAkE14BAAgm/AIAEA24REAgGzCIwAA2YRHAACyCY8AAGQTHgEAyDZdtTTT2URh2QpNaxAAgAnTyoHtTNgOh848AgCQTXgEACCb8AgAQDbhEQCAbMIjAADZhEcAALIJjwAAZBMeAQDIJjwCAJBNeAQAINt0tDQTTc/ETdnqTDWy1AQNAAATpAqEdSaMwSoX1mPOPAIAkE94BAAgm/AIAEA24REAgGzCIwAA2YRHAACyCY8AAGQTHgEAyCY8AgCQTXgEACCb8AgAQLYiPLZaKqyUY8snAQAwSTrasg7VcExcdOYRAIB8wiMAANmERwAAsgmPAABkEx4BAMgmPAIAkE14BAAgm/AIAEA24REAgGzCIwAA2aYXy/ZmFtvNztRDAABMpqVcWATF9nA13ZlHAACyCY8AAGQTHgEAyCY8AgCQTXgEACCb8AgAQDbhEQCAbMIjAADZhEcAALIJjwAAZBMeAQDIVoXHqtHCaL6wbrew+gcAwGSpMmAZCNtpcGl40ZlHAADyCY8AAGQTHgEAyCY8AgCQTXgEACCb8AgAQDbhEQCAbMIjAADZhEcAALIJjwAAZCvDY9ncTNk2YWu4HAQAYAJFLFyKg8VIe9iZRwAA1kF4BAAgm/AIAEA24REAgGzCIwAA2YRHAACyCY8AAGQTHgEAyCY8AgCQTXgEACCb8AgAQLYiPFatFbZv6/YLqwkAAEySpQxYDHS2a10MxbAzjwAAZBMeAQDIJjwCAJBNeAQAIJvwCABANuERAIBswiMAANmERwAAsgmPAABkEx4BAMg2XbU5Uzc8025/BgAAakVIrHOiM48AAGQTHgEAyCY8AgCQTXgEACCb8AgAQDbhEQCAbMIjAADZhEcAALIJjwAAZBMeAQDIJjwCAJBtut209WKrV3TlTYwBADBRigwYWbD6q3QMO/MIAEA24REAgGzCIwAA2YRHAACyCY8AAGQTHgEAyCY8AgCQTXgEACCb8AgAQDbhEQCAbGV4LJubqW+WmqEBAGBiLWXCxY58WAw78wgAQDbhEQCAbMIjAADZhEcAALIJjwAAZBMeAQDIJjwCAJBNeAQAIJvwCABANuERAIBsRXisGpypWycsb6p/AABMmsiA7XR4biJ05hEAgGzCIwAA2YRHAACyCY8AAGQTHgEAyCY8AgCQTXgEACCb8AgAQDbhEQCAbMIjAADZhEcAALJNV80WtlswXGrC8NymDAEA2OhagTD+ql49vlgOO/MIAEA24REAgGzCIwAA2YRHAACyCY8AAGQTHgEAyCY8AgCQTXgEACCb8AgAQDbhEQCAbNNVkzNhqfGZ1iAAABNqWUas/krOPAIAkE14BAAgm/AIAEA24REAgGzCIwAA2YRHAACyCY8AAGQTHgEAyCY8AgCQTXgEACCb8AgAQLZ2eOxoz7oa7JgAAMDEWOyMgSsioTOPAABkEx4BAMgmPAIAkE14BAAgm/AIAEA24REAgGzCIwAA2YRHAACyCY8AAGQTHgEAyFaEx8V2qzNlWzSaJQQAmFytLFj063YK27eLzjwCAJBPeAQAIJvwCABANuERAIBswiMAANmERwAAsgmPAABkEx4BAMgmPAIAkE14BAAgm/AIAEC2Ojx2tm+9dAMAwIRZase6joNL43Fb9Jx5BAAgm/AIAEA24REAgGzCIwAA2YRHAACyCY8AAGQTHgEAyCY8AgCQTXgEACCb8AgAQLbpVtMz0exMx2B7GACAyVIHwWV5sB5x5hEAgGzCIwAA2YRHAACyCY8AAGQTHgEAyCY8AgCQTXgEACCb8AgAQDbhEQCAbMIjAADZhEcAALJNl80Uxs1qbRgCADCRqkxY3C4uT4fOPAIAkE14BAAgm/AIAEA24REAgGzCIwAA2YRHAACyCY8AAGQTHgEAyCY8AgCQTXgEACBbGR7bjc7E0GLHOAAAk+acLFhMaE1z5hEAgGzCIwAA2YRHAACyCY8AAGQTHgEAyCY8AgCQTXgEACCb8AgAQDbhEQCAbMIjAADZivC4WmOEHW3QAAAwYSIItsNgNVRNc+YRAIBswiMAANmERwAAsgmPAABkEx4BAMgmPAIAkE14BAAgm/AIAEA24REAgGzCIwAA2YRHAACyLYXHss3CdhOGAABMolYerJqyXh4PixFnHgEAyCY8AgCQTXgEACCb8AgAQDbhEQCAbMIjAADZhEcAALIJjwAAZBMeAQDIJjwCAJBturPNmXIwbpa1QwMAwESps+BqkdCZRwAAsgmPAABkEx4BAMgmPAIAkE14BAAgm/AIAEA24REAgGzCIwAA2YRHAACyCY8AAGQTHgEAyFaHx3aD1pq1BgBgeSYsxqo/Zx4BAMgnPAIAkE14BAAgm/AIAEA24REAgGzCIwAA2YRHAACyCY8AAGQTHgEAyCY8AgCQbbpsemap/ZmlAQAAJlJnHozhouuY5MwjAADZhEcAALIJjwAAZBMeAQDIJjwCAJBNeAQAIJvwCABANuERAIBswiMAANmERwAAsgmPAABkWyM8aucaAGByLc+CrTFnHgEAyCY8AgCQTXgEACCb8AgAQDbhEQCAbMIjAADZhEcAALIJjwAAZBMeAQDIJjwCAJCtDI9lczNxUw8sDQIAMFGqHNiRBIvB9tiiM48AAOQTHgEAyCY8AgCQTXgEACCb8AgAQDbhEQCAbMIjAADZhEcAALIJjwAAZBMeAQDIJjwCAJBtKTwub8t6+RgAABMm4uCydq0rzjwCAJBNeAQAIJvwCABANuERAIBswiMAANmERwAAsgmPAABkEx4BAMgmPAIAkE14BAAg21J4nKr7VRs0S2MAAEyi88RBZx4BAMgmPAIAkE14BAAgm/AIAEA24REAgGzCIwAA2YRHAACyCY8AAGQTHgEAyCY8AgCQrQiPZXuE9W3L8jEAAAjOPAIAkE14BAAgm/AIAEA24REAgGzCIwAA2YRHAACyCY8AAGQTHgEAyCY8AgCQTXgEACCb8AgAQLZpzVgDALBM5MNzMmI1wZlHAACyCY8AAGQTHgEAyCY8AgCQTXgEACCb8AgAQDbhEQCAbMIjAADZhEcAALIJjwAAZKvDY9XczFIrNOc0RwMAwKRZrYVCZx4BAMgmPAIAkE14BAAgm/AIAEA24REAgGzCIwAA2YRHAACyCY8AAGQTHgEAyCY8AgCQTXgEACBbR3jUoDUAACtFRiy66s+ZRwAA8gmPAABkEx4BAMgmPAIAkE14BAAg29TevTcsLqbiX9yWX6aphvft35c++n9+o5oLYIM4dGxzeqjoDj+7KR0+UXVHiuGnTs2k2YXpNDs/lZ6dr/5fvWPTYtqx+WzRP5su234mXb1zIV1zUd0Vw3t3z6friw5gI3ndd/xgeuD+B9LU1FSRFKfirxyOf+W48AhsZPc+tjUdfGJb+rsnt6T7oju6NZ1cKA6AfbC9CJcHLp9LBy47nV5QdLfuOZVuu3KuvhdgPAmPwEQ5UxzHPn9ke/rskW3pnq9tT597dFs6faY/YfFCtswsppdcdSq97NqT6aVXn0p3XH0yzQxn0QB9IzwCEyEuR3/i4R3p7kd2pE8VXRO88rrZdGfRvep5sy5vA2NDeAQ2tM8c3p4+fmhH+tOHd5afZWyi+Gzkq5/3bHrN9bPp5decrKcCNNOFwqNvWwNj6S+PbEu/8Bd70k/8yVXp/X91SWODY4h1i3WMdY11jnUHGFfCIzBW7ju6Jb3r05enn/z4VemDB3enoydn6nuaL9Y11jnWPcoQZQEYN8IjMBYWzk6lD/3Nxentd1+ZfvPeS8qf2BlXse5RhihLlCnKBjAuhEeg8T57eFv6d3dfke765BXp4BNb66njL8oSZYqyRRkBxoHwCDRanJmLgPWRL++qp2w8UbYoY5QVoOmER6CRHp+dSb/8mcvTL/7FnvTA0xv/s4FRxihrlDnKDtBUwiPQOF94tPom9W988ZI0N6Qf+G6CKGuUOcoedQDQRMIj0Ch/8bXt6d33XJb+6CsX1VMmT5Q96iDqAqBphEegMf7k0M70q/dcXv7w96SLOoi6iDoBaBLhEWiEP7j/ovTuz1yW7n1s43ybuldRF1EnUTcATSE8AiMXZ9fe85eXTsQXY9Yr6iTqxhlIoCmER2Ck4nN97/2C4LiWqJuoI5+BBJpAeARGJr5R/J7PX+pSdYaoo6gr38IGhmLZD13UI0UvhoRHYCTitwx/++BuX45Zh6irqDO/AwmMkvAIjMQHDl4y0T/H062os6g7gFERHoGhi2b4Pnhwdz3GekXdacoQGBXhERiqzx7eVoafSWo5pt+i7qIOoy4Bhk14BIZm4exU+vB9F/tmdR9EHUZdRp0CDJPwCAzNh+/blT7y5V31GL2Kuow6BRgm4REYivuObkn/8299Tq/fok6jbgGGRXgEhuJ/378rHXzC7zn2W9Rp1C3AsAiPwMDFD1v/oZ/lGZioWz8eDgyL8AgM3EeLcHP4xKZ6jH6Luo06BhiGFeFxse4D9Mc9h7enjz4g2Axa1HHUNUBfrBYJi2kx2ZlHYKA+/vCOdPSk5vQGLeo46hpg0IRHYGAOHducPn5oZz3GoEVdR50DDJLwCAzM3X+/Iz0kzAxN1HXUOcAgCY/AQJxZTOkTgszQRZ1H3QMMivAIDMTnj2xPn3pEeBy2qPOoe4BBER6BgfjsEb87OCrqHhgk4REYiHu+5uzXqKh7YJCER6Dv7n1sa/qcFk9GJuo+tgHAIAiPQN8dfGJbOn1mqh5j2KLuYxsADILwCPTd3z25pR5iVGwDYFBWhMf6TIETBkAP7hNcRs42APpn+e9/OfMI9FW0cHLfUZ+3G7XYBlqbAQZBeAT6Klo5Obng8sWoxTbQug8wCMIj0FeHn91UDzFqtgUwCMIj0FeHTwgsTWFbAIMgPAJ9JbA0h20BDILwCPTVEZdKG8O2AAZBeAT66smTM/UQo/bUKdsC6D/hEeir2QWHlaawLYBBcGQB+mp23mGlKWbn/WQS0H+O8kBfzfqNx8Z4VpAHBsCRBQCAbMIj0Fc7N5+thxi1HZuWt0cLkG2Ni0jCI9BXOzYLLE2xQ5AHBkB4BPpqxyaBpSlsC2AQhEegry7ddqYeYtQu225bAP0nPAJ9dfXOhXqIUbMtgEEQHoG+uuYigaUpbAtgEIRHoK8EluawLYBBEB6BvrrGpdLGsC2AQRAegb7au3s+bff7giMX2yC2BUC/CY9AX11fBJYDl8/VY4xKbIPYFgD9JjwCfXfgstP1EKNiGwCDIjwCffcCwWXkbAOgH6pWCpe3VSg8An13655TacuMzz2OStR9bAOAQRAegb677cq59JKrhJdRibqPbQAwCMIjMBAvu/ZkPcSwqXtgkIRHYCBeerUzj6Oi7oFBEh6Bgbjj6pPpldfN1mMMS9R51D3AoAiPwEDMTKV0p/A4dFHnUfcAgyI8AgPzqufNauVkiKKuo84BBkl4BAYmWjh59fOerccYtKhrrcoAgyY8AgP1mutn0+Xbz9RjDErUcdQ1wKAJj8BAvfyak+l1+07UYwxK1HHUNcCgCY/AwL32hhPpmosW6jH6Leo26hhgGKar5gp9NQ8YnBdffSq99kbhZlCibqOOAQannRWdeQSG4jv3P5Nu3aPJvH6LOo26BRgW4REYigOXn07/+Kbj9Rj9EnUadQswLMIjMDTfc+CZ9F3Pd5asX6Iuo04Bhkl4BIZm0/RiEXaOp32XOFPWq6jDqMuoU4BhEh6BoXrpNafS9916LG2dEXq6FXUXdRh1CTBswiMwdG+8+XgZfuhO1F3UIcAoCI/ASHz/rU+nf+jne9Yt6izqDmBUhEdgJK7YcSb9wK3HtIqyDlFXUWdRdwCjIjwCI3P7VafS2+54Kt12pd9/vJCoo6irqDOAURIegZH6hmtPprfe/pRvYK8h6ibqKOoKYNQ6wuOUlgqBkfiW659Nb3uxALmaqJOom6gjgFFYiobFQAw78wg0wj/afyL9+MufdAm7Q9RF1EnUDUBTCI9AY8TZtR972VFfoilEHURdOOMINI3wCDRKfK7vx1/25ET/jE+UPerAZxyBJhIegcaJbxT/2294Iv3gi56eqJZooqxR5ii7b1UDTSU8Ao0Uv2X4ky8/mn6mCFKT8EWaKGOUNcrsdxyBJivC42pfr66/eQ0wYtEM313f+Hj6ruc/U0/ZeKJsUUZNDgKNEmFwZSAsxovwWF0SKu+TGIEGeuk1p9K/v/PxMmDdumfjfBs7yhJlirJFGQGaoMqMq4XCatryM4/1R4tiysKZM+mJJ56qJgCM2KbpxfLM3DvvfCz9i9ueTtdctFDfM35i3aMMUZYoU5QNoAki+y0srP3RmfZnHquY2bpJc6fm0v0PPFwOAzTFgctPp596xdH0K9/8aPq+W4+ly7ePz+cDY11jnWPdowxRFoAmiex3aq51JaQ+wVj06qFSGR47J7SG507PpQfuf6geA2iW1jey3/0tj6Y33/Z02rt7vr6neWLdYh1jXX2TGmiyyH6n56r/2FaZsE6GS2FxKk3tveHGxbhevbgYXTEt+sW/zZs2pxtuuCH9+q//fHrOc66q5gdoqEPHNqe7/35H+kTRfeqRHfXU0XrldbPpVc+dTXcW3fUNDrcA4atffTT9yI/8XHrwwQfT/MJ8xMQiKxa3ZVfGxnJ85tLLLr2rI04uDZ49czYtLCykY8efTa959SuqiQANdcm2s+lFV86l79h/In39tafScy+eLy+tPDa7KZ1Z7DjGDdCWmcX08mtOpe8+8Ez6l3c8ld56+1Pp9qvmynUDaLpf/pXfTF/8wsE0Oztb5sEyNNaBsTNATt1w441x0rE881idgayH6zOQ115zbbrzzlekt771jc5AAmPn3se2poNPbEt/9+SWdF90R7emkwv9CZPbNy2mA5fPpQOXnU4vKLpb95zSNjcwduKM43vf+6H0ibv/Xzpy5EjEwTIsVqGxCoydw0vhsRUWzxku7N59cbrqqqvSP3nj69K+fden/fuvT3v2XFrdCTBG4vL2Q0V3+NlN6fCJqjtSDD95cibNLkyn2fmiq8Plzs1n047Ni2nHprPp0m1n0tU7F8pvSpddMRyfZXQ5GhhH8a3q++8/lB544FD6Hx/6aHr00UfT8WP1b80uC4xVaCynlJPK8LivTImtsNh5BrJz+ubNm9Kui3alLVu3pG1bt6WZmeninnLWNax555q6fmT3i+zB8Bc6XsUcydoO3YTseoXJ2J6jUYXWDW8ExZyQmi10WdKJ2SbDX2oVvIZtjYUWd8W98XM8c3On0tzp0+nEiRNpfn6hCoflDHVQXBquxsspMVyGx+LNYHlYLCeV/fhX/XVMr26W+udT3t+tLh86imX2ouv17Xpduy/kCKpnvLbJuJmQYnIB5RsC51O+eQ5bD4vs/qHjU85RbJPyEu6w9bDINeuouKu8vw6E1XDVL8u5NK3z/hXDNxbhMd4sIxe2w2M8e/SLgfJv+fA5/fMoHzNsPSxyrbKsaSTFnIB17cUIFtmLkdQRjEj5BjQJuixmb7UzkoV2ZST7QdfV08O6NmyZ5fOWf5394rZzWoy3psdjyjur4bJ/474iPMb7VnFTvoHF3znDK+6Pf9XE8u986kd2p8uHTsoyu9XTunZrBIvsZaFjtroMyCheK/WhmfMZQfX0tsguHz1Gu8FI9tkeFtn1+m6kZZZ3FXMU/XK+pX7ntGq4HIvhcrB9fxEe9xfHyDhMlr3iiHnucPXX7q88C3k+5f3D1sMiu17fkRRzAta1FyNYZC8LHcnqTopxqtzyCL3xjaaYI1jqSBY55IX2sLihr2vocpE9resolrmWOgyec4m6vK8av+Dl63Z4LI6xVWKsgmPZLwbKv7pfz1fN37pvDdUTdaVe0nB1ucie1nXIxRynde3FSPafXozZ6nZvYgo6ZMXRfBKMWTHLN9thG/Iix62MXa/vmC1zrQeX9xQ35XotC4bLp5VjMVwOdk6bSv8fYuHmf1MReTYAAAAASUVORK5CYII=;" vertex="1" parent="1">
          <mxGeometry x="1323" y="270" width="655" height="524" as="geometry" />
        </mxCell>
        <mxCell id="bB5YiQVqKnfjXykwCb6W-3" value="" style="curved=1;endArrow=classic;html=1;rounded=0;" edge="1" parent="1">
          <mxGeometry width="50" height="50" relative="1" as="geometry">
            <mxPoint x="1420" y="540" as="sourcePoint" />
            <mxPoint x="1550" y="360" as="targetPoint" />
            <Array as="points">
              <mxPoint x="1420" y="400" />
              <mxPoint x="1500" y="360" />
            </Array>
          </mxGeometry>
        </mxCell>
        <mxCell id="bB5YiQVqKnfjXykwCb6W-4" value="" style="curved=1;endArrow=classic;html=1;rounded=0;" edge="1" parent="1">
          <mxGeometry width="50" height="50" relative="1" as="geometry">
            <mxPoint x="1500" y="730" as="sourcePoint" />
            <mxPoint x="1417" y="570" as="targetPoint" />
            <Array as="points">
              <mxPoint x="1440" y="750" />
              <mxPoint x="1390" y="700" />
            </Array>
          </mxGeometry>
        </mxCell>
        <mxCell id="bB5YiQVqKnfjXykwCb6W-5" value="" style="curved=1;endArrow=classic;html=1;rounded=0;" edge="1" parent="1">
          <mxGeometry width="50" height="50" relative="1" as="geometry">
            <mxPoint x="1710" y="380" as="sourcePoint" />
            <mxPoint x="1740" y="690" as="targetPoint" />
            <Array as="points">
              <mxPoint x="1830" y="370" />
              <mxPoint x="1880" y="410" />
              <mxPoint x="1960" y="560" />
              <mxPoint x="1860" y="700" />
            </Array>
          </mxGeometry>
        </mxCell>
      </root>
    </mxGraphModel>
  </diagram>
</mxfile>
